<?xml version="1.0" encoding="UTF-8" standalone="no"?>
<svg width="766px" height="742px" viewBox="0 0 766 742" version="1.1" xmlns="http://www.w3.org/2000/svg" xmlns:xlink="http://www.w3.org/1999/xlink">
    <!-- Generator: Sketch 40.3 (33839) - http://www.bohemiancoding.com/sketch -->
    <title>Q &amp; A</title>
    <desc>Created with Sketch.</desc>
    <defs></defs>
    <g id="Page-1" stroke="none" stroke-width="1" fill="none" fill-rule="evenodd" opacity="0.200000003">
        <g id="mac-1" transform="translate(-541.000000, -71.000000)" fill="#00ACED">
            <g id="hero">
                <g id="hed" transform="translate(305.000000, 243.000000)">
                    <path d="M505.5,211.5 L466,165 C488,144 499.5,113.5 499.5,76 L499.5,-51 C499.5,-126 454,-172 368.5,-172 C282,-172 236.5,-126 236.5,-51 L236.5,76 C236.5,151 282,197 368.5,197 C407.5,197 438.5,187.5 460.5,169.5 L500,216.5 C501,217.5 502,217.5 503,216.5 L505.5,214.5 C506.5,213.5 506.5,212.5 505.5,211.5 L505.5,211.5 Z M244,75.5 L244,-50.5 C244,-121.5 287,-165 368.5,-165 C449,-165 492,-121.5 492,-50.5 L492,75.5 C492,146.5 449,190 368.5,190 C287,190 244,146.5 244,75.5 L244,75.5 Z M512,98 C512,139.5 542,169.5 568.5,194.5 C523,214 481,237 481,298.5 C481,348.5 522,387 569.5,387 C607.5,387 636.5,378.5 701.5,320 L762.5,378 C764,379.5 765,380 767,380 L771.5,380 C773.5,380 774,379 772.5,377.5 L707,315.5 L745,279 C746,278 746,277 745,276 L743,274 C742,273 741,273 740,274 L701.5,310.5 L581,196.5 L586,194.5 C648.5,169.5 679.5,149 679.5,98 C679.5,56.5 645,18 595.5,18 C545.5,18 512,56.5 512,98 L512,98 Z M672,98 C672,152.5 632.5,167.5 582.5,188.5 L576,191.5 C549.5,166.5 519.5,138.5 519.5,98 C519.5,60.5 549.5,25 595.5,25 C641,25 672,60.5 672,98 L672,98 Z M573.5,199.5 L696,315.5 C633.5,371.5 605.5,380 569.5,380 C526,380 488.5,344.5 488.5,298.5 C488.5,240.5 526,219 573.5,199.5 L573.5,199.5 Z M1001.5,568 L857.5,214.5 C857,213 856,212 854,212 L851,212 C849,212 848,213 847.5,214.5 L703.5,568 C703,569 703,570 705.5,570 L708,570 C710,570 711,569.5 711.5,568 L764,439.5 L941,439.5 L993.5,568 C994,569.5 995,570 997,570 L999.5,570 C1002,570 1002,569 1001.5,568 L1001.5,568 Z M938.5,432.5 L766.5,432.5 L850.5,227 C851,225.5 851.5,224 852,221 L852.5,221 C853,224 854,225.5 854.5,227 L938.5,432.5 Z" id="Q-&amp;-A"></path>
                </g>
            </g>
        </g>
    </g>
</svg>