<?xml version="1.0" encoding="utf-8"?>
<!-- Generator: Adobe Illustrator 15.0.2, SVG Export Plug-In . SVG Version: 6.00 Build 0)  -->
<!DOCTYPE svg PUBLIC "-//W3C//DTD SVG 1.1//EN" "http://www.w3.org/Graphics/SVG/1.1/DTD/svg11.dtd">
<svg version="1.1" id="Layer_1" xmlns="http://www.w3.org/2000/svg" xmlns:xlink="http://www.w3.org/1999/xlink" x="0px" y="0px"
	 width="300px" height="300px" viewBox="0 0 300 300" enable-background="new 0 0 300 300" xml:space="preserve">
<g>
	<path fill="#184F70" d="M149.999,0c-82.84,0-150,67.156-150,150c0,82.84,67.16,150,150,150c82.842,0,150.002-67.16,150.002-150
		C300.001,67.156,232.848,0,149.999,0z"/>
	<g transform="translate(0 -1028.4)">
		<g>
			<rect x="61.542" y="1121.856" fill="#27AE60" width="177" height="103.249"/>
			<rect x="61.542" y="1117.481" fill="#7CC7A1" width="177" height="103.25"/>
			<rect x="61.542" y="1113.106" fill="#27AE60" width="177" height="103.249"/>
			<rect x="61.542" y="1108.732" fill="#7CC7A1" width="177" height="103.25"/>
			<path fill="#ECF0F1" d="M98.417,1116.106L98.417,1116.106c0,16.227-13.208,29.5-29.5,29.5v28.762
				c16.291,0,29.5,13.277,29.5,30.238h103.25v-0.735c0-16.226,13.208-29.503,29.5-29.503v-28.762c-16.292,0-29.5-13.273-29.5-29.5
				H98.417L98.417,1116.106z"/>
			<path fill="#7CC7A1" d="M179.542,1160.356c0,20.36-13.209,36.875-29.5,36.875s-29.5-16.515-29.5-36.875
				c0-20.364,13.208-36.875,29.5-36.875S179.542,1139.992,179.542,1160.356z"/>
		</g>
		<g transform="matrix(1.9176 0 0 1.1179 18.509 -115.45)">
			<path fill="#ECF0F1" d="M60.898,1122.493l9.508-4.423h0.95v32.448c0,2.213,0.087,3.688,0.259,4.423
				c0.191,0.741,0.574,0.741,1.153,1.475h3.515v1.475H61.589v-1.475h3.574c0.537-0.735,0.911-0.735,1.123-1.475
				c0.21-0.735,0.318-2.21,0.318-4.423v-20.652c0-2.947-0.096-5.161-0.289-5.898c-0.133-0.737-0.383-0.737-0.749-1.475h-1.268
				c-0.71,0-1.699,0-2.967,0.738L60.898,1122.493"/>
			<g transform="translate(0 -1.5096)">
				<g transform="translate(-18.773 13.418)">
					<path fill="#F39C12" d="M56.597,1191.569c-3.365,0-6.313,1.335-8.413,3.3h-3.123v1.855v1.032v0.411v0.412v2.886
						c0,5.463,5.164,9.896,11.536,9.896c6.374,0,11.538-4.432,11.538-9.896v-2.886v-0.412v-0.411v-1.032v-1.855h-3.121
						C62.914,1192.904,59.963,1191.569,56.597,1191.569z"/>
					<path fill="#F1C40F" d="M68.137,1194.791c0,5.463-5.164,9.897-11.538,9.897c-6.372,0-11.538-4.432-11.538-9.897
						c0-5.462,5.166-9.896,11.538-9.896C62.971,1184.895,68.137,1189.328,68.137,1194.791z"/>
				</g>
				<g>
					<g transform="translate(-18.773 11.629)">
						<path fill="#F39C12" d="M56.597,1180.165c-3.365,0-6.313,1.332-8.413,3.299h-3.123v1.855v1.032v0.411v0.412v2.886
							c0,5.463,5.164,9.896,11.536,9.896c6.374,0,11.538-4.432,11.538-9.896v-2.886v-0.412v-0.411v-1.032v-1.855h-3.121
							C62.914,1181.497,59.963,1180.165,56.597,1180.165z"/>
						<path fill="#F1C40F" d="M68.137,1183.386c0,5.463-5.164,9.896-11.538,9.896c-6.372,0-11.538-4.432-11.538-9.896
							c0-5.463,5.166-9.896,11.538-9.896C62.971,1173.49,68.137,1177.922,68.137,1183.386z"/>
					</g>
					<g transform="translate(-18.773 9.8401)">
						<path fill="#F39C12" d="M56.597,1168.76c-3.365,0-6.313,1.332-8.413,3.297h-3.123v1.856v1.03v0.413v0.411v2.886
							c0,5.463,5.164,9.896,11.536,9.896c6.374,0,11.538-4.432,11.538-9.896v-2.886v-0.411v-0.413v-1.03v-1.856h-3.121
							C62.914,1170.092,59.963,1168.76,56.597,1168.76z"/>
						<path fill="#F1C40F" d="M68.137,1171.982c0,5.462-5.164,9.896-11.538,9.896c-6.372,0-11.538-4.433-11.538-9.896
							c0-5.463,5.166-9.897,11.538-9.897C62.971,1162.084,68.137,1166.518,68.137,1171.982z"/>
					</g>
					<g transform="translate(-18.773 8.0509)">
						<path fill="#F39C12" d="M56.597,1157.355c-3.365,0-6.313,1.333-8.413,3.299h-3.123v1.855v1.031v0.411v0.412v2.885
							c0,5.463,5.164,9.897,11.536,9.897c6.374,0,11.538-4.432,11.538-9.897v-2.885v-0.412v-0.411v-1.031v-1.855h-3.121
							C62.914,1158.688,59.963,1157.355,56.597,1157.355z"/>
						<path fill="#F1C40F" d="M68.137,1160.575c0,5.463-5.164,9.897-11.538,9.897c-6.372,0-11.538-4.432-11.538-9.897
							c0-5.463,5.166-9.895,11.538-9.895C62.971,1150.68,68.137,1155.113,68.137,1160.575z"/>
					</g>
					<g transform="translate(-15.123 13.418)">
						<path fill="#F39C12" d="M79.868,1191.569c-3.365,0-6.315,1.335-8.415,3.3h-3.123v1.855v1.032v0.411v0.412v2.886
							c0,5.463,5.164,9.896,11.538,9.896c6.371,0,11.54-4.432,11.54-9.896v-2.886v-0.412v-0.411v-1.032v-1.855h-3.125
							C86.182,1192.904,83.233,1191.569,79.868,1191.569z"/>
						<path fill="#F1C40F" d="M91.403,1194.791c0,5.463-5.164,9.897-11.536,9.897c-6.374,0-11.538-4.432-11.538-9.897
							c0-5.462,5.164-9.896,11.538-9.896C86.238,1184.895,91.403,1189.328,91.403,1194.791z"/>
					</g>
					<g transform="translate(-14.08 12.524)">
						<path fill="#F39C12" d="M86.518,1185.866c-3.367,0-6.317,1.34-8.417,3.3h-3.123v1.854v1.031v0.411v0.413v2.886
							c0,5.469,5.166,9.894,11.54,9.894c6.37,0,11.538-4.425,11.538-9.894v-2.886v-0.413v-0.411v-1.031v-1.854h-3.125
							C92.831,1187.208,89.883,1185.866,86.518,1185.866z"/>
						<path fill="#F1C40F" d="M98.056,1189.089c0,5.462-5.168,9.895-11.538,9.895c-6.375,0-11.54-4.432-11.54-9.895
							c0-5.463,5.164-9.897,11.54-9.897C92.888,1179.194,98.056,1183.625,98.056,1189.089z"/>
					</g>
					<g transform="translate(-18.773 6.2618)">
						<path fill="#F39C12" d="M56.597,1145.949c-3.365,0-6.313,1.333-8.413,3.299h-3.123v1.855v1.031v0.412v0.413v2.886
							c0,5.463,5.164,9.896,11.536,9.896c6.374,0,11.538-4.432,11.538-9.896v-2.886v-0.413v-0.412v-1.031v-1.855h-3.121
							C62.914,1147.283,59.963,1145.949,56.597,1145.949z"/>
						<path fill="#F1C40F" d="M68.137,1149.171c0,5.463-5.164,9.897-11.538,9.897c-6.372,0-11.538-4.432-11.538-9.897
							c0-5.467,5.166-9.899,11.538-9.899C62.971,1139.272,68.137,1143.704,68.137,1149.171z"/>
					</g>
				</g>
			</g>
		</g>
	</g>
</g>
</svg>
