<?xml version="1.0" encoding="utf-8"?>
<!-- Generator: Adobe Illustrator 15.0.2, SVG Export Plug-In . SVG Version: 6.00 Build 0)  -->
<!DOCTYPE svg PUBLIC "-//W3C//DTD SVG 1.1//EN" "http://www.w3.org/Graphics/SVG/1.1/DTD/svg11.dtd">
<svg version="1.1" id="Layer_1" xmlns="http://www.w3.org/2000/svg" xmlns:xlink="http://www.w3.org/1999/xlink" x="0px" y="0px"
	 width="300px" height="300px" viewBox="0 0 300 300" enable-background="new 0 0 300 300" xml:space="preserve">
<g>
	<path fill="#184F70" d="M149.998,0c-82.84,0-150,67.156-150,150c0,82.84,67.16,150,150,150C232.84,300,300,232.84,300,150
		C300,67.156,232.846,0,149.998,0z"/>
	<path fill="#EFC75E" d="M59.996,105l90.002-44.957L240,105l-0.047,5.943l-89.955,45.01l-89.965-44.938L59.996,105z"/>
	<path fill="#E7BF55" d="M59.998,105l89.932,44.996L240,105v90l-90.328,45l-89.674-45V105z"/>
	<path fill="#DBB551" d="M149.998,239.836v-89.875l-0.068,0.035L59.998,105v90l89.674,45L149.998,239.836z"/>
	<path fill="#F1D999" d="M186.012,131.973v26.376l8.033,0.646l5.121-6.098l4.822,0.758v-30.664L186.012,131.973z"/>
	<path fill="#F7E3AF" d="M95.941,87.045l91.53,45.838l16.506-9.781l-89.998-45.07L95.941,87.045z"/>
	<path fill="#F2F2F2" d="M131.979,189.367l-29.954-15.033c-1.652-0.83-2.992,0.182-2.992,2.256v18.781
		c0,2.078,1.34,4.434,2.992,5.262l29.953,15.033c1.652,0.826,2.994-0.186,2.994-2.26v-18.781
		C134.973,192.551,133.627,190.195,131.979,189.367z M124.486,204.393l-17.968-9.021c-0.826-0.412-1.496-1.59-1.496-2.627
		s0.67-1.541,1.496-1.127l17.969,9.016c0.824,0.42,1.498,1.594,1.498,2.633S125.314,204.809,124.486,204.393z M127.48,198.381
		l-20.962-10.521c-0.827-0.418-1.497-1.594-1.497-2.629c0-1.041,0.67-1.545,1.496-1.129l20.963,10.522
		c0.828,0.416,1.498,1.594,1.498,2.629C128.979,198.293,128.311,198.797,127.48,198.381z"/>
</g>
</svg>
